<?xml version="1.0" standalone="no"?>
<!DOCTYPE svg PUBLIC "-//W3C//DTD SVG 20010904//EN"
 "http://www.w3.org/TR/2001/REC-SVG-20010904/DTD/svg10.dtd">
<svg version="1.0" xmlns="http://www.w3.org/2000/svg"
 width="300.000000pt" height="300.000000pt" viewBox="0 0 300.000000 300.000000"
 preserveAspectRatio="xMidYMid meet">
<metadata>
Created by potrace 1.10, written by Peter Selinger 2001-2011
</metadata>
<g transform="translate(0.000000,300.000000) scale(0.100000,-0.100000)"
fill="#000000" stroke="none">
<path d="M1467 2992 c-12 -5 -284 -536 -744 -1451 -632 -1257 -724 -1447 -719
-1475 4 -17 12 -36 19 -43 9 -9 343 -12 1475 -14 1332 -1 1465 0 1480 15 27
27 18 76 -38 191 -127 265 -1373 2751 -1383 2762 -16 16 -67 24 -90 15z m782
-1769 c1 -10 -155 -13 -749 -13 -412 0 -750 4 -750 8 0 5 169 346 377 757
l376 749 373 -745 c205 -409 373 -750 373 -756z m296 -583 c124 -247 225 -455
225 -461 0 -9 -318 -11 -1265 -7 -696 3 -1268 7 -1271 10 -3 3 96 209 220 457
l226 451 820 0 820 0 225 -450z"/>
<path d="M1180 1650 l0 -410 70 0 70 0 2 293 c3 289 3 292 21 252 10 -22 68
-152 130 -290 l112 -250 98 -3 97 -3 0 411 0 410 -70 0 -70 0 -2 -287 -3 -288
-28 60 c-15 33 -73 162 -130 287 l-102 228 -97 0 -98 0 0 -410z"/>
<path d="M1210 661 l0 -411 75 0 75 0 0 129 0 128 98 5 c113 5 184 32 241 89
99 98 105 282 13 377 -63 66 -127 84 -329 90 l-173 5 0 -412z m339 255 c41
-21 61 -63 61 -126 0 -102 -58 -150 -180 -150 l-70 0 0 143 c0 79 3 147 8 151
12 13 147 -1 181 -18z"/>
</g>
</svg>
